<svg width="512" height="512" viewBox="0 0 512 512" fill="none" xmlns="http://www.w3.org/2000/svg">
<path fill-rule="evenodd" clip-rule="evenodd" d="M353.002 386.098V512H227.1L41 325.9H167.002V200.098L353.002 386.098ZM261.01 356C260.312 356 259.632 356.228 259.076 356.65C258.52 357.072 258.117 357.665 257.929 358.338L247.811 397.601C247.239 399.815 246.085 401.837 244.468 403.454C242.85 405.071 240.829 406.225 238.614 406.797L199.351 416.915C198.676 417.101 198.081 417.504 197.656 418.062C197.232 418.619 197.002 419.3 197.002 420C197.002 420.7 197.232 421.381 197.656 421.938C198.081 422.496 198.676 422.899 199.351 423.085L238.614 433.203C240.829 433.775 242.85 434.929 244.468 436.546C246.085 438.163 247.239 440.185 247.811 442.399L257.936 481.662C258.124 482.335 258.527 482.928 259.083 483.35C259.639 483.772 260.318 484 261.017 484C261.715 484 262.394 483.772 262.95 483.35C263.507 482.928 263.909 482.335 264.098 481.662L274.216 442.399C274.787 440.185 275.942 438.163 277.56 436.546C279.177 434.929 281.198 433.774 283.413 433.203L322.676 423.078C323.346 422.888 323.936 422.484 324.355 421.929C324.775 421.373 325.002 420.696 325.002 420C325.002 419.304 324.775 418.626 324.355 418.07C323.936 417.515 323.346 417.112 322.676 416.922L283.413 406.791C281.199 406.22 279.178 405.066 277.561 403.45C275.943 401.834 274.788 399.814 274.216 397.601L264.092 358.338C263.904 357.665 263.501 357.072 262.944 356.65C262.388 356.228 261.708 356 261.01 356Z" fill="#101828"/>
<path fill-rule="evenodd" clip-rule="evenodd" d="M284.904 0L471.004 186.1H345.002V311.902L159.002 125.902V0H284.904ZM251.01 28C250.312 28.0001 249.632 28.2284 249.076 28.6504C248.52 29.0724 248.117 29.6654 247.929 30.3379L237.811 69.6006C237.239 71.8153 236.085 73.8368 234.468 75.4541C232.85 77.0714 230.829 78.2255 228.614 78.7969L189.351 88.915C188.676 89.1013 188.081 89.5044 187.656 90.0615C187.232 90.6187 187.002 91.2996 187.002 92C187.002 92.7004 187.232 93.3813 187.656 93.9385C188.081 94.4956 188.676 94.8987 189.351 95.085L228.614 105.203C230.829 105.775 232.85 106.929 234.468 108.546C236.085 110.163 237.239 112.185 237.811 114.399L247.936 153.662C248.124 154.335 248.527 154.928 249.083 155.35C249.639 155.772 250.318 156 251.017 156C251.715 156 252.394 155.772 252.95 155.35C253.507 154.928 253.909 154.335 254.098 153.662L264.216 114.399C264.787 112.185 265.942 110.163 267.56 108.546C269.177 106.929 271.198 105.774 273.413 105.203L312.676 95.0781C313.346 94.888 313.936 94.4842 314.355 93.9287C314.775 93.3733 315.002 92.6961 315.002 92C315.002 91.3037 314.775 90.6259 314.355 90.0703C313.936 89.5148 313.346 89.112 312.676 88.9219L273.413 78.791C271.199 78.2202 269.178 77.0664 267.561 75.4502C265.943 73.834 264.788 71.8141 264.216 69.6006L254.092 30.3379C253.904 29.6654 253.501 29.0724 252.944 28.6504C252.388 28.2283 251.708 28 251.01 28Z" fill="#101828"/>
</svg>
